<?xml version="1.0" encoding="utf-8"?>
<!-- Generator: Adobe Illustrator 22.1.0, SVG Export Plug-In . SVG Version: 6.00 Build 0)  -->
<svg version="1.1" id="Layer_1" xmlns="http://www.w3.org/2000/svg" xmlns:xlink="http://www.w3.org/1999/xlink" x="0px" y="0px"
	 viewBox="0 0 473.1 258.5" style="enable-background:new 0 0 473.1 258.5;" xml:space="preserve">
<style type="text/css">
	.st0{fill:#666666;}
	.st1{fill:#092644;}
</style>
<g>
	<path class="st0" d="M0,250.9l3.3-3.9c4.9,4.4,9.6,6.7,16.1,6.7c6.3,0,10.5-3.4,10.5-8v-0.1c0-4.4-2.4-6.9-12.2-8.9
		c-10.8-2.4-15.8-5.8-15.8-13.6v-0.1c0-7.4,6.5-12.8,15.5-12.8c6.9,0,11.8,1.9,16.5,5.8l-3.1,4.1c-4.4-3.6-8.7-5.1-13.6-5.1
		c-6.1,0-10,3.4-10,7.6v0.1c0,4.4,2.4,6.9,12.8,9.1c10.5,2.3,15.3,6.1,15.3,13.3v0.1c0,8.1-6.7,13.3-16.1,13.3
		C11.8,258.5,5.6,256,0,250.9z"/>
	<path class="st0" d="M66.2,210.8h17.6c10.6,0,17.6,5.6,17.6,14.9v0.1c0,10.1-8.5,15.4-18.5,15.4H71.6v16.6h-5.3V210.8z M83.2,236.4
		c7.8,0,12.9-4.2,12.9-10.3v-0.1c0-6.7-5-10.2-12.6-10.2H71.6v20.7H83.2z"/>
	<path class="st0" d="M131.3,210.8h34v4.8h-28.7v16.1h25.7v4.8h-25.7v16.5h29v4.8h-34.3V210.8z"/>
	<path class="st0" d="M196.5,210.8h5.3v42.1h26.5v4.9h-31.8V210.8z"/>
	<path class="st0" d="M258.2,210.8h5.3v42.1H290v4.9h-31.8V210.8z"/>
	<path class="st0" d="M360.3,210.8h5.4l17.1,25.7l17.1-25.7h5.4v47H400v-38.1l-17.1,25.2h-0.3l-17.1-25.1v38h-5.2V210.8z"/>
	<path class="st0" d="M438.7,210.8h34v4.8H444v16.1h25.7v4.8H444v16.5h29v4.8h-34.3V210.8z"/>
</g>
<g>
	<path class="st1" d="M350.9,3.6l-65.8,98.6l-50.2-75.1c-2.3-3.4-5.1-6.4-8.4-8.8c-2.6-1.8-5.2-3.6-7.8-5.1
		C204.2,4.4,188.4,0,168.1,0c-34.3,0-59.4,20.9-59.4,49.3v0.5c0,29.7,19.1,43.1,60.7,52.2c38,8,47,17.6,47,34.3v0.5
		c0,17.8-16,30.7-40.3,30.7c-25,0-43.1-8.5-62-25.6l-12.7,15c21.7,19.4,45.2,28.9,73.9,28.9c35.9,0,61.7-20.1,61.7-51.1v-0.5
		c0-27.6-18.6-42.3-58.9-51.1c-39.8-8.5-49.1-18.1-49.1-35.1v-0.5c0-16.3,15-29.2,38.5-29.2c16.1,0,30.8,4.4,45.3,14.5
		c2.1,1.4,3.8,3.2,5.2,5.3l66.1,96.7h1l65.8-96.8v146.4h20.4V3.6H350.9z"/>
</g>
</svg>
