<?xml version="1.0" encoding="utf-8"?>
<svg id="master-artboard" viewBox="0 0 810.558837890625 560.3567504882812" version="1.1" xmlns="http://www.w3.org/2000/svg" x="0px" y="0px" style="enable-background:new 0 0 1400 980;" width="810.558837890625px" height="560.3567504882812px">
<rect id="ee-background" x="0" y="0" width="810.558837890625" height="560.3567504882812" style="fill: #fff; fill-opacity: 0; pointer-events: none;"/>
<g transform="matrix(2.9592051506042485, 0, 0, 2.9592051506042485, -297.1462468062718, 5.644042120621805)"><g>
	<path class="st1" d="M350.9,3.6l-65.8,98.6l-50.2-75.1c-2.3-3.4-5.1-6.4-8.4-8.8c-2.6-1.8-5.2-3.6-7.8-5.1&#10;&#9;&#9;C204.2,4.4,188.4,0,168.1,0c-34.3,0-59.4,20.9-59.4,49.3v0.5c0,29.7,19.1,43.1,60.7,52.2c38,8,47,17.6,47,34.3v0.5&#10;&#9;&#9;c0,17.8-16,30.7-40.3,30.7c-25,0-43.1-8.5-62-25.6l-12.7,15c21.7,19.4,45.2,28.9,73.9,28.9c35.9,0,61.7-20.1,61.7-51.1v-0.5&#10;&#9;&#9;c0-27.6-18.6-42.3-58.9-51.1c-39.8-8.5-49.1-18.1-49.1-35.1v-0.5c0-16.3,15-29.2,38.5-29.2c16.1,0,30.8,4.4,45.3,14.5&#10;&#9;&#9;c2.1,1.4,3.8,3.2,5.2,5.3l66.1,96.7h1l65.8-96.8v146.4h20.4V3.6H350.9z" style="fill: #fff;"/>
</g>
</g>
</svg>